<?xml version="1.0" standalone="no"?>
<!DOCTYPE svg PUBLIC "-//W3C//DTD SVG 20010904//EN"
 "http://www.w3.org/TR/2001/REC-SVG-20010904/DTD/svg10.dtd">
<svg version="1.0" xmlns="http://www.w3.org/2000/svg"
 width="224.000000pt" height="224.000000pt" viewBox="0 0 224.000000 224.000000"
 preserveAspectRatio="xMidYMid meet">

<g transform="translate(0.000000,224.000000) scale(0.100000,-0.100000)"
fill="#000000" stroke="none">
<path d="M940 2236 c-3 -2 -41 -14 -85 -26 -44 -11 -94 -27 -111 -35 -16 -8
-59 -27 -95 -43 -101 -45 -226 -127 -291 -190 -32 -31 -65 -60 -73 -65 -8 -4
-15 -13 -15 -19 0 -5 -17 -31 -39 -57 -34 -41 -72 -102 -71 -116 0 -3 -16 -35
-36 -72 -61 -115 -106 -259 -97 -307 4 -18 2 -27 -4 -23 -19 12 -32 -197 -17
-271 5 -24 9 -28 18 -19 7 7 16 26 21 42 l8 30 7 -25 c15 -53 23 -70 34 -70
15 0 46 -57 46 -85 0 -31 20 -43 35 -22 7 10 15 17 19 17 12 0 6 -28 -9 -40
-8 -7 -15 -26 -15 -42 0 -16 -4 -27 -9 -24 -5 4 -12 0 -15 -6 -4 -9 -10 -6
-22 10 -9 12 -23 22 -30 22 -8 0 -14 7 -14 16 0 14 -3 14 -15 4 -13 -11 -15
-10 -9 6 4 14 4 16 -4 5 -12 -17 2 -64 25 -82 12 -10 16 -10 23 1 7 11 11 9
18 -10 6 -16 6 -27 0 -31 -5 -3 -8 -19 -6 -35 2 -24 8 -29 35 -32 17 -2 37
-10 45 -19 12 -15 9 -16 -20 -10 -31 6 -33 5 -26 -16 4 -12 13 -31 20 -42 13
-18 14 -18 14 -2 0 10 4 16 9 12 5 -3 12 3 14 12 3 10 4 6 4 -9 -1 -15 -5 -24
-9 -22 -4 3 -5 -2 -2 -10 7 -18 34 -10 34 10 0 8 7 14 15 14 18 0 20 -27 3
-33 -7 -2 -10 -8 -6 -12 4 -4 21 1 38 11 26 16 32 17 39 5 12 -18 3 -41 -15
-41 -8 0 -14 -4 -14 -10 0 -5 6 -10 12 -10 7 0 2 -7 -10 -16 -12 -8 -22 -22
-22 -31 0 -14 3 -13 21 3 22 19 22 19 10 -3 -15 -29 -16 -26 25 -69 26 -28 37
-35 43 -25 6 9 10 5 15 -14 10 -40 115 -135 149 -135 8 0 30 -10 49 -23 52
-36 76 -39 109 -14 22 15 28 26 23 41 -5 17 -4 19 7 9 10 -11 10 -19 -4 -48
-9 -20 -17 -42 -17 -50 0 -15 67 -38 83 -28 6 3 7 1 3 -5 -5 -8 1 -12 17 -12
14 0 38 -3 56 -6 l31 -6 -17 32 c-18 37 -42 63 -72 80 -12 6 -21 15 -21 21 0
11 3 9 68 -47 23 -20 42 -43 42 -50 0 -8 4 -14 9 -14 5 0 7 16 5 36 -4 32 -2
35 18 32 14 -2 24 -11 26 -23 2 -16 1 -17 -7 -5 -16 24 -24 4 -9 -27 8 -17 23
-29 38 -31 14 -2 29 -8 35 -13 5 -5 24 -9 43 -9 33 0 34 1 28 33 -11 51 -13
107 -4 107 16 0 7 20 -9 21 -12 0 -13 2 -5 6 17 7 72 -16 72 -30 0 -6 6 -2 14
8 8 11 12 24 8 29 -3 5 2 7 11 3 10 -4 17 -1 17 5 0 28 14 -6 16 -40 2 -45 -4
-72 -17 -72 -6 0 -5 8 1 21 15 26 7 34 -19 19 -13 -6 -21 -21 -21 -35 0 -15
-6 -25 -14 -25 -19 0 -26 -33 -10 -48 18 -17 44 -15 44 3 0 8 4 15 10 15 5 0
7 -7 4 -15 -5 -12 4 -15 45 -15 55 0 62 9 31 40 -26 26 -26 38 1 14 17 -16 22
-16 31 -4 8 12 9 12 4 -2 -7 -23 26 -42 44 -25 10 9 11 9 6 0 -4 -7 -2 -13 4
-13 8 0 10 13 7 36 -4 28 0 40 15 52 12 10 29 25 40 34 17 17 18 17 18 -10 0
-15 -7 -40 -15 -56 -9 -16 -13 -31 -10 -35 3 -3 27 3 53 13 26 10 57 21 70 23
12 3 22 9 22 13 0 4 11 11 25 14 14 4 25 10 25 15 0 5 21 15 46 22 25 8 53 21
63 30 10 9 33 25 52 34 19 10 81 65 139 124 154 156 243 296 311 491 33 93 33
99 34 260 0 160 -5 203 -40 360 -21 99 -86 249 -136 317 -127 171 -431 396
-613 452 -73 23 -101 25 -291 29 -116 2 -213 1 -215 -2z m-407 -416 c-3 -12
-8 -19 -11 -16 -5 6 5 36 12 36 2 0 2 -9 -1 -20z m107 -66 c0 -10 6 -14 15
-10 12 4 13 2 2 -14 -13 -22 -19 -23 -57 -13 l-25 7 25 6 c16 4 24 12 22 23
-2 9 2 17 8 17 5 0 10 -7 10 -16z m992 -20 c-6 -3 -10 -10 -6 -15 3 -5 -2 -9
-10 -9 -9 0 -16 4 -16 9 0 5 -10 7 -22 3 -12 -3 -19 -1 -15 4 3 6 23 11 44 11
21 1 32 0 25 -3z m-89 -31 c-7 -2 -19 -2 -25 0 -7 3 -2 5 12 5 14 0 19 -2 13
-5z m271 -12 c16 -17 13 -18 -66 -25 -64 -5 -88 -12 -105 -28 -31 -29 -30 -71
3 -97 36 -28 70 -26 98 4 13 14 31 25 40 25 28 0 18 -34 -21 -72 -30 -28 -48
-37 -85 -41 -35 -3 -48 -1 -48 9 0 18 -49 54 -74 54 -56 0 -84 -59 -52 -106
13 -18 13 -22 -4 -37 -22 -19 -17 -43 10 -52 10 -3 42 3 71 15 68 25 72 25 58
-2 -9 -17 -8 -28 6 -55 16 -28 23 -33 56 -33 30 0 42 6 61 30 22 28 27 30 52
20 22 -8 35 -6 63 7 l36 17 24 -30 c13 -16 29 -38 35 -48 9 -16 8 -18 -8 -11
-11 5 -36 8 -56 7 -29 -1 -38 3 -43 18 -8 25 -16 25 -57 1 -38 -23 -87 -27
-171 -16 l-59 8 14 -24 c7 -13 21 -30 31 -39 20 -17 38 -108 19 -96 -6 3 -13
2 -17 -4 -9 -15 -27 -12 -19 3 4 6 -2 4 -12 -6 -24 -23 -9 -51 32 -55 38 -5
105 16 103 31 -6 49 25 63 65 30 12 -10 15 -11 9 -3 -17 19 -17 35 0 21 8 -6
16 -9 18 -6 3 2 6 -7 7 -21 4 -55 -168 -94 -236 -54 l-32 20 -46 -35 c-43 -33
-104 -48 -104 -26 0 18 28 31 57 25 22 -4 36 0 60 20 42 35 48 64 17 78 -27
13 -30 25 -9 52 37 48 -2 102 -113 158 -58 29 -86 29 -119 -1 -10 -9 -29 -24
-43 -34 l-24 -17 42 0 c40 0 42 -1 32 -21 -7 -11 -24 -25 -40 -30 -57 -20 -45
-89 15 -89 37 0 43 -8 23 -28 -19 -19 -44 -14 -58 12 -7 14 -19 27 -27 30 -8
3 -11 2 -8 -3 3 -5 -4 -16 -15 -24 -11 -7 -18 -16 -16 -18 2 -2 -5 -4 -17 -5
-12 0 -49 -2 -82 -3 -118 -5 -110 -10 -108 61 2 63 2 63 -7 16 -4 -25 -13 -55
-18 -65 -10 -16 -12 -15 -21 10 -6 16 -11 44 -11 63 0 40 -18 80 -49 108 -11
10 -18 23 -14 29 3 6 1 7 -6 3 -18 -11 -51 3 -44 20 3 8 -1 14 -11 14 -9 0
-16 -6 -16 -14 0 -21 -20 -30 -33 -16 -9 10 -9 11 1 6 6 -4 12 -2 12 4 0 16
-50 4 -64 -15 -6 -8 -26 -26 -45 -40 -38 -27 -34 -30 17 -15 30 8 33 7 27 -8
-4 -9 -11 -30 -15 -47 -4 -16 -8 -24 -9 -18 -2 28 -60 45 -127 37 l-65 -6 7
-44 c6 -44 5 -46 -31 -46 -35 0 -41 4 -53 42 -6 22 -12 48 -12 58 0 24 53 54
85 47 14 -3 37 -7 51 -10 16 -4 23 -2 19 5 -3 5 -2 10 4 10 6 0 18 16 27 37
l18 36 -40 33 c-45 39 -50 40 -78 17 -20 -18 -20 -18 -2 10 17 28 17 29 -5 53
-12 13 -30 24 -38 25 -11 0 -12 2 -3 6 6 2 26 -7 43 -21 17 -14 34 -24 39 -21
4 3 11 -6 14 -19 9 -35 50 -58 99 -54 41 3 42 4 47 43 4 32 9 39 23 37 10 -2
33 7 52 18 l35 22 0 -51 c0 -72 17 -81 146 -81 95 0 104 -2 121 -23 19 -25 50
-31 71 -14 8 6 12 6 12 -2 0 -6 5 -11 11 -11 6 0 9 6 6 14 -10 26 17 36 97 36
97 1 165 13 177 31 5 8 9 31 9 51 0 30 5 39 28 50 15 7 28 23 30 35 3 18 -3
24 -30 31 -26 6 -34 14 -36 35 -2 15 4 37 12 49 16 22 16 22 16 -10 0 -38 15
-72 32 -72 26 0 46 32 41 64 -4 26 -1 34 19 42 27 13 51 7 42 -8 -4 -7 -2 -8
4 -4 6 4 8 14 5 24 -6 15 -5 15 10 3 9 -7 14 -17 11 -22 -3 -5 2 -6 10 -3 9 3
14 10 11 14 -3 5 17 8 45 6 27 -1 60 4 72 11 31 17 42 16 62 -6z m-1107 3 c-3
-3 -12 -4 -19 -1 -8 3 -5 6 6 6 11 1 17 -2 13 -5z m62 -35 c-17 -10 -31 -7
-36 8 -5 13 40 22 46 9 2 -4 -3 -12 -10 -17z m-89 -9 c-8 -15 -19 -19 -50 -17
-22 1 -40 5 -40 9 0 13 35 27 68 28 30 0 32 -2 22 -20z m-152 -28 c2 -7 -7
-12 -23 -12 -24 0 -26 2 -15 15 14 17 31 16 38 -3z m1212 -49 c0 -6 -8 -9 -19
-6 -10 3 -22 0 -25 -6 -11 -16 -36 -13 -36 4 0 9 7 30 16 47 l16 31 24 -29
c13 -16 23 -34 24 -41z m-1557 -4 c6 -22 -19 -52 -36 -43 -7 3 -1 -4 12 -15
13 -12 20 -25 16 -29 -4 -4 -10 -1 -12 6 -3 6 -13 12 -24 12 -25 0 -25 27 0
35 12 4 18 12 14 21 -3 7 1 14 7 14 9 0 8 6 -3 18 -23 25 -21 39 2 18 10 -10
21 -26 24 -37z m344 -24 c0 -8 -4 -12 -9 -9 -5 3 -6 10 -3 15 9 13 12 11 12
-6z m1071 -88 l3 -37 -40 0 c-40 0 -41 1 -41 34 0 30 4 35 28 39 42 6 47 3 50
-36z m273 26 c12 -16 12 -17 -1 -7 -8 7 -24 14 -35 17 -19 4 -19 5 1 6 12 0
28 -7 35 -16z m-1539 -47 c3 -28 0 -37 -19 -45 -20 -9 -24 -7 -29 14 -5 19 0
30 17 45 13 10 25 19 25 20 1 0 4 -15 6 -34z m1502 -15 c-7 -9 -34 10 -34 24
0 13 3 12 18 -2 10 -10 17 -20 16 -22z m41 10 c-3 -6 -11 -11 -16 -11 -5 0 -4
6 3 14 14 16 24 13 13 -3z m70 -37 c28 -64 29 -68 15 -59 -17 10 -60 83 -60
100 0 32 21 13 45 -41z m-225 -49 c7 9 15 13 18 10 3 -2 -1 -11 -8 -20 -10
-12 -10 -18 1 -32 13 -15 12 -15 -7 -5 -18 9 -24 9 -34 -3 -7 -9 -15 -13 -18
-10 -3 2 1 12 8 20 10 12 10 19 2 27 -20 20 -13 32 7 14 16 -15 19 -15 31 -1z
m-341 -14 c11 -7 10 -11 -5 -19 -14 -7 -22 -6 -31 3 -10 11 -10 15 0 18 18 8
21 8 36 -2z m497 -102 c12 -19 -20 -41 -46 -31 l-23 9 24 16 c28 20 35 21 45
6z m97 -74 c28 -12 38 -23 46 -52 6 -21 11 -44 11 -50 0 -33 41 3 60 51 6 16
13 27 16 24 9 -10 -18 -63 -46 -89 -21 -20 -27 -32 -23 -52 3 -17 1 -27 -6
-27 -7 0 -9 5 -6 10 10 16 -12 12 -29 -6 -9 -8 -13 -20 -10 -26 4 -6 0 -14 -7
-19 -10 -6 -7 -9 10 -9 38 0 61 -28 60 -69 -2 -34 -2 -34 -6 -6 -6 40 -20 55
-50 55 -13 0 -34 5 -45 11 -11 6 -38 13 -59 15 -31 3 -39 0 -39 -13 0 -11 -3
-14 -10 -7 -11 11 -2 54 13 54 5 0 19 10 31 23 12 13 29 26 39 30 10 4 14 12
11 22 -3 8 -2 15 4 15 6 0 12 -4 14 -8 2 -5 18 -5 36 0 27 7 31 11 22 27 -17
32 -42 34 -64 6 -23 -28 -56 -26 -56 4 0 17 36 101 43 101 3 0 21 -7 40 -15z
m-283 -16 c0 -14 -16 -11 -29 5 -10 12 -8 13 8 9 12 -3 21 -9 21 -14z m-1167
-28 c4 -17 2 -18 -13 -8 -10 6 -16 15 -14 19 9 14 22 9 27 -11z m695 -42 c-46
-40 -59 -36 -18 6 18 19 37 32 42 29 5 -4 -5 -19 -24 -35z m-183 -3 c24 -9 44
-11 51 -5 7 6 11 3 11 -7 0 -14 -10 -16 -69 -11 -64 5 -70 4 -94 -20 -34 -33
-42 -23 -10 12 15 16 26 32 26 36 0 13 40 11 85 -5z m-374 -52 c7 -9 -7 -19
-51 -40 -63 -29 -65 -31 -34 -37 10 -2 27 -8 38 -12 16 -7 16 -9 2 -17 -9 -5
-16 -18 -16 -28 0 -10 -4 -21 -8 -24 -4 -2 -8 8 -7 22 0 21 -5 28 -22 30 -29
4 -31 -30 -4 -57 12 -12 17 -28 14 -43 -3 -15 2 -31 12 -41 9 -10 12 -17 6
-17 -15 0 -51 -42 -45 -52 3 -4 0 -8 -6 -8 -7 0 -10 -6 -7 -12 2 -7 11 -13 21
-13 9 0 20 -6 25 -13 6 -10 13 -11 35 -1 20 9 29 10 38 1 9 -9 6 -14 -12 -20
-21 -8 -19 -10 24 -26 26 -10 53 -15 61 -12 8 3 15 3 15 0 0 -13 -53 -23 -71
-13 -14 7 -29 7 -49 0 -24 -8 -28 -7 -23 5 3 7 9 11 14 8 10 -6 12 9 2 19 -3
4 -12 -2 -20 -13 -8 -11 -22 -20 -32 -20 -9 0 -22 -5 -29 -12 -9 -9 -15 -9
-24 0 -10 10 -10 15 2 22 8 5 12 10 8 10 -3 0 -14 3 -23 6 -12 5 -16 2 -13
-12 2 -12 -2 -18 -11 -16 -7 1 -19 -5 -26 -15 -7 -10 -17 -15 -21 -11 -4 5 2
16 14 26 11 10 27 37 35 60 l15 42 -53 0 c-62 0 -85 7 -85 26 0 35 77 45 106
13 21 -24 60 -48 50 -31 -3 6 -2 13 4 17 5 3 10 18 10 33 0 15 7 36 15 46 23
31 19 55 -12 62 -16 3 -47 17 -70 31 -34 18 -47 21 -62 13 -11 -5 -28 -10 -38
-10 -13 0 -10 4 11 15 15 8 40 15 55 15 24 0 26 3 27 45 1 55 15 74 40 54 16
-12 17 -12 12 3 -5 10 0 18 12 21 13 3 19 -2 23 -22 3 -14 0 -30 -6 -34 -7 -5
1 -6 18 -2 45 9 80 38 84 71 l3 29 10 -24 c5 -14 13 -30 19 -37z m169 29 c0
-21 -3 -24 -9 -14 -5 8 -7 20 -4 28 8 21 13 15 13 -14z m1135 7 c3 -5 1 -10
-4 -10 -6 0 -11 5 -11 10 0 6 2 10 4 10 3 0 8 -4 11 -10z m-1630 -43 c-6 -35
-3 -46 14 -61 23 -21 28 -46 10 -46 -6 0 -9 6 -6 14 3 8 -1 20 -10 28 -14 11
-16 10 -10 -13 6 -22 2 -30 -20 -45 -15 -9 -33 -17 -40 -17 -7 0 -10 -4 -7 -8
2 -4 0 -10 -6 -14 -6 -4 -7 -11 -4 -17 4 -6 3 -8 -3 -5 -5 3 -9 16 -7 29 1 13
3 43 3 67 1 37 3 42 16 31 22 -18 35 -3 35 41 0 24 -4 38 -10 34 -11 -7 -14 8
-3 18 3 4 17 7 30 7 23 0 24 -3 18 -43z m680 3 c3 -5 1 -10 -4 -10 -6 0 -11 5
-11 10 0 6 2 10 4 10 3 0 8 -4 11 -10z m225 -12 c0 -10 2 -10 8 -1 4 7 17 11
29 10 20 -1 21 -3 8 -33 -8 -19 -11 -49 -8 -73 4 -26 2 -41 -5 -41 -15 0 -25
37 -18 66 6 23 -10 31 -24 12 -3 -4 -5 11 -5 33 0 21 3 39 7 39 5 0 8 -6 8
-12z m-115 -8 c3 -6 -1 -7 -9 -4 -18 7 -21 14 -7 14 6 0 13 -4 16 -10z m30
-10 c-3 -5 2 -10 11 -10 10 0 15 -3 11 -6 -10 -10 -39 5 -32 16 3 5 8 10 11
10 3 0 2 -4 -1 -10z m-335 -13 c0 -7 -20 -26 -45 -41 -33 -21 -45 -35 -45 -52
0 -16 6 -24 18 -24 14 0 15 -2 2 -10 -13 -8 -12 -10 3 -10 9 0 17 -4 17 -10 0
-5 -6 -7 -13 -4 -8 3 -13 -5 -15 -22 -3 -37 -11 -47 -28 -33 -12 10 -12 14 3
25 16 12 16 13 -4 7 -23 -5 -27 -14 -23 -42 1 -10 -3 -10 -15 3 -16 16 -19 16
-35 1 -17 -15 -18 -15 -16 9 0 13 5 24 11 23 5 -1 16 16 24 38 10 30 28 50 64
75 28 19 59 45 71 57 25 27 26 27 26 10z m-200 -17 c0 -5 -2 -10 -4 -10 -3 0
-8 5 -11 10 -3 6 -1 10 4 10 6 0 11 -4 11 -10z m919 -52 c-3 -38 -1 -43 16
-40 15 3 17 1 9 -7 -6 -7 -18 -9 -27 -5 -13 5 -16 15 -12 48 5 50 4 46 11 46
3 0 4 -19 3 -42z m84 -39 c28 -45 32 -56 17 -52 -15 4 -28 27 -59 108 -7 17 5
2 42 -56z m-53 21 c0 -5 -5 -10 -11 -10 -5 0 -7 5 -4 10 3 6 8 10 11 10 2 0 4
-4 4 -10z m-700 -10 c0 -5 -2 -10 -4 -10 -3 0 -8 5 -11 10 -3 6 -1 10 4 10 6
0 11 -4 11 -10z m-70 -14 c0 -2 -7 -7 -16 -10 -8 -3 -12 -2 -9 4 6 10 25 14
25 6z m382 -38 c-7 -7 -12 -8 -12 -2 0 14 12 26 19 19 2 -3 -1 -11 -7 -17z
m14 -26 c-18 -16 -18 -16 -6 6 6 13 14 21 18 18 3 -4 -2 -14 -12 -24z m-317
-35 c0 -9 -2 -9 -5 0 -3 7 -12 9 -20 6 -9 -3 -14 1 -14 11 0 14 4 15 20 6 11
-6 20 -16 19 -23z m57 8 c16 -8 24 -15 17 -15 -18 0 -8 -31 16 -52 26 -20 21
-24 -10 -8 -15 8 -21 7 -25 -4 -3 -9 -12 -12 -22 -9 -12 5 -14 2 -9 -11 4 -10
10 -29 13 -42 3 -13 10 -24 16 -24 16 0 0 -17 -22 -23 -16 -4 -18 -2 -10 13
13 25 13 27 -10 33 -11 3 -20 2 -20 -2 0 -3 -10 -12 -21 -19 -28 -18 -47 -1
-25 21 9 9 13 23 10 34 -4 13 -3 15 4 4 7 -10 13 -6 26 19 20 42 20 51 -1 44
-16 -5 -16 -4 1 10 10 8 23 13 29 9 5 -3 6 3 2 16 -8 25 2 26 41 6z m1107 -27
c-6 -48 -37 -121 -59 -139 -9 -7 -5 12 11 56 14 37 24 73 22 79 -5 14 11 46
22 46 5 0 7 -19 4 -42z m-878 -16 c-12 -10 -19 -26 -17 -40 3 -21 2 -22 -17
-11 -17 11 -23 10 -39 -4 -10 -9 -26 -17 -36 -17 -16 0 -16 1 -2 16 9 8 16 21
16 28 0 9 9 12 25 9 15 -3 35 3 52 16 34 25 46 27 18 3z m45 -23 c0 -5 -7 -9
-15 -9 -15 0 -20 12 -9 23 8 8 24 -1 24 -14z m-516 -42 c11 -11 11 -17 1 -30
-17 -23 -20 -22 -23 13 -3 33 3 37 22 17z m652 5 c7 -4 8 -15 4 -27 -7 -19 -8
-19 -15 -2 -7 17 -8 17 -28 0 -14 -13 -18 -13 -12 -3 22 39 31 45 51 32z
m-537 -34 c-8 -14 -14 -18 -17 -10 -4 13 17 46 25 38 3 -2 -1 -15 -8 -28z
m584 -27 c-3 -13 5 -30 26 -50 30 -29 41 -49 21 -36 -7 5 -88 -29 -172 -73
-12 -6 -9 46 2 53 6 3 10 17 10 31 0 15 6 24 16 24 12 0 15 -7 12 -30 -5 -32
-2 -35 22 -20 9 5 13 22 12 45 -2 26 3 43 20 60 25 26 39 25 31 -4z m-388 9
c-3 -5 -12 -10 -18 -10 -7 0 -6 4 3 10 19 12 23 12 15 0z m683 -36 c26 -40 23
-65 -6 -57 -26 6 -150 -56 -132 -67 7 -4 21 -5 31 -3 16 4 19 0 19 -26 l0 -31
-75 0 c-71 0 -75 1 -81 24 -3 14 -4 33 -1 43 4 14 5 14 6 -4 0 -13 4 -23 7
-23 3 0 34 20 70 45 35 25 68 45 74 45 5 0 10 4 10 9 0 5 10 11 21 14 15 4 20
11 16 21 -7 17 1 46 12 46 3 0 16 -16 29 -36z m-465 -5 c15 -20 22 -39 19 -54
-4 -22 -6 -23 -26 -11 -11 8 -38 17 -59 21 -38 6 -38 7 -21 26 9 10 23 19 31
19 7 0 13 7 13 15 0 24 17 18 43 -16z m-430 -22 c-3 -6 -1 -7 6 -3 6 4 19 2
27 -5 13 -10 17 -10 24 2 14 22 32 -3 37 -55 4 -36 10 -46 24 -46 13 0 20 10
25 35 7 40 34 61 52 43 19 -19 14 -34 -15 -49 -38 -20 -83 -86 -83 -122 0 -24
-3 -27 -14 -18 -10 9 -11 20 -3 49 6 21 7 50 4 64 -8 31 -61 67 -112 75 -24 4
-32 9 -24 14 8 4 10 11 6 15 -4 4 1 13 11 20 19 14 47 0 35 -19z m-375 -25
c-11 -13 -10 -15 4 -9 10 3 20 1 24 -5 4 -6 3 -8 -4 -4 -5 3 -13 0 -15 -6 -4
-10 -8 -9 -16 2 -16 23 -14 50 4 44 13 -5 13 -9 3 -22z m257 14 c24 -9 34 -16
25 -19 -97 -30 -190 -84 -190 -110 0 -8 -3 -8 -9 1 -4 8 -2 32 7 58 15 45 26
51 85 46 11 -1 21 6 24 18 6 24 7 24 58 6z m-171 -12 c3 -8 2 -12 -4 -9 -6 3
-10 10 -10 16 0 14 7 11 14 -7z m1272 -29 c14 -9 23 -19 20 -22 -3 -3 -13 2
-22 12 -17 16 -18 16 -30 0 -11 -15 -12 -14 -9 11 6 47 7 50 12 32 2 -9 16
-24 29 -33z m-1408 3 c-13 -11 -22 -25 -20 -30 1 -5 -2 -7 -8 -3 -16 10 26 67
43 58 4 -3 -2 -14 -15 -25z m705 25 c-7 -2 -19 -2 -25 0 -7 3 -2 5 12 5 14 0
19 -2 13 -5z m417 -13 c0 -5 -2 -10 -4 -10 -3 0 -8 5 -11 10 -3 6 -1 10 4 10
6 0 11 -4 11 -10z m-391 -36 c36 -7 40 -19 11 -34 -16 -9 -18 -8 -14 5 6 14
-20 21 -66 16 -13 -2 -13 -1 0 8 18 13 27 13 69 5z m-369 -24 c8 -5 11 -10 5
-10 -5 0 -17 5 -25 10 -8 5 -10 10 -5 10 6 0 17 -5 25 -10z m506 -57 c0 -1
-26 4 -56 11 l-55 13 39 20 40 20 17 -31 c9 -17 16 -32 15 -33z m-234 23 c-2
-19 -11 -37 -19 -40 -12 -5 -14 -1 -8 21 5 23 22 53 29 53 1 0 0 -15 -2 -34z
m758 9 c0 -8 -2 -15 -4 -15 -2 0 -6 7 -10 15 -3 8 -1 15 4 15 6 0 10 -7 10
-15z m-48 -47 c-3 -61 -12 -60 -12 2 0 29 3 50 7 47 3 -4 6 -26 5 -49z m-1131
-45 c-8 -14 -10 -8 -11 28 0 25 3 49 8 53 11 12 14 -62 3 -81z m484 77 c-3 -5
-11 -10 -16 -10 -6 0 -7 5 -4 10 3 6 11 10 16 10 6 0 7 -4 4 -10z m798 -15
c-3 -9 -8 -14 -10 -11 -3 3 -2 9 2 15 9 16 15 13 8 -4z m-1084 -78 c-11 -40
-54 -77 -89 -77 -32 0 -89 29 -101 52 -9 16 -8 18 8 9 10 -5 39 -17 65 -25
l48 -15 30 30 c28 29 34 44 31 79 -1 13 0 12 8 -1 7 -10 7 -28 0 -52z m426 47
c-11 -8 -29 -21 -40 -29 -20 -13 -20 -13 -1 -21 13 -5 21 -3 24 4 5 16 22 15
22 -1 0 -8 10 -19 23 -25 15 -7 17 -11 6 -11 -9 -1 -24 -11 -35 -22 -17 -19
-27 -21 -81 -16 -73 5 -124 32 -138 71 -12 34 3 46 58 46 31 0 38 -3 35 -17
-2 -12 -11 -17 -25 -15 -12 2 -23 -4 -27 -13 -8 -22 1 -35 25 -35 10 0 19 -4
19 -10 0 -5 7 -10 16 -10 11 0 15 8 12 28 -2 21 1 26 15 24 9 -2 17 2 17 7 0
5 19 21 43 35 47 29 63 34 32 10z m142 -46 c-3 -8 -6 -5 -6 6 -1 11 2 17 5 13
3 -3 4 -12 1 -19z m373 -65 c0 -12 -4 -25 -10 -28 -6 -4 -10 11 -10 37 0 31 3
39 10 28 5 -8 10 -25 10 -37z m-869 14 c22 3 29 0 29 -11 0 -9 4 -16 9 -16 12
0 1 -48 -13 -53 -6 -3 -21 2 -31 10 -15 11 -17 17 -7 20 10 4 7 9 -8 20 -16
11 -25 12 -33 4 -23 -23 -29 -10 -6 15 13 14 25 21 27 16 2 -6 16 -8 33 -5z
m614 -16 c3 -5 1 -12 -5 -16 -5 -3 -10 1 -10 9 0 18 6 21 15 7z m-515 -61 c0
-5 -2 -10 -4 -10 -3 0 -8 5 -11 10 -3 6 -1 10 4 10 6 0 11 -4 11 -10z m70 -6
c0 -3 -9 -17 -19 -30 -15 -19 -20 -21 -25 -9 -3 8 2 21 10 30 15 15 34 20 34
9z m316 -46 l19 -21 -27 18 c-29 18 -34 25 -20 25 5 0 17 -10 28 -22z m-329
-10 c-3 -8 -6 -5 -6 6 -1 11 2 17 5 13 3 -3 4 -12 1 -19z m16 -58 c-9 -11 -19
-17 -21 -15 -6 6 18 35 29 35 5 0 1 -9 -8 -20z"/>
<path d="M1450 1445 c0 -8 2 -15 4 -15 2 0 6 7 10 15 3 8 1 15 -4 15 -6 0 -10
-7 -10 -15z"/>
<path d="M1025 1331 c-3 -6 1 -11 10 -11 9 0 14 -3 11 -8 -2 -4 2 -16 10 -27
14 -19 14 -19 28 0 8 11 11 24 8 30 -4 5 -8 2 -10 -7 -2 -10 -8 -18 -13 -18
-6 0 -8 4 -5 9 3 4 -3 16 -13 25 -13 11 -21 14 -26 7z"/>
<path d="M1154 1318 c-4 -13 -12 -26 -18 -30 -6 -4 -7 -10 -3 -14 9 -9 37 27
31 38 -3 5 0 8 5 8 6 0 11 5 11 10 0 19 -19 10 -26 -12z"/>
<path d="M1119 1314 c-1 -5 -1 -12 0 -16 0 -5 -3 -8 -9 -8 -5 0 -10 -4 -10
-10 0 -5 4 -10 9 -10 12 0 25 39 17 47 -3 4 -7 2 -7 -3z"/>
<path d="M1070 1210 c-11 -11 -20 -29 -20 -40 0 -22 33 -60 53 -60 24 0 57 31
57 53 0 33 -12 45 -35 36 -11 -4 -15 -8 -9 -8 21 -2 23 -39 3 -44 -15 -4 -19
0 -19 19 0 17 -4 22 -15 18 -8 -4 -15 -1 -15 6 0 6 9 14 20 17 11 3 20 9 20
14 0 15 -19 10 -40 -11z"/>
<path d="M1680 1600 c-9 -18 -8 -20 15 -20 23 0 24 2 15 20 -6 11 -13 20 -15
20 -2 0 -9 -9 -15 -20z"/>
<path d="M1530 1455 c0 -21 5 -25 29 -25 22 0 28 4 26 18 -2 9 -4 20 -4 25 -1
4 -12 7 -26 7 -20 0 -25 -5 -25 -25z"/>
<path d="M483 954 c-5 -12 -7 -13 -14 -2 -6 9 -8 6 -6 -9 0 -12 5 -19 9 -17
11 7 30 44 23 44 -3 0 -8 -7 -12 -16z"/>
<path d="M695 860 c-3 -5 -1 -10 4 -10 6 0 11 5 11 10 0 6 -2 10 -4 10 -3 0
-8 -4 -11 -10z"/>
<path d="M11 954 c0 -11 3 -14 6 -6 3 7 2 16 -1 19 -3 4 -6 -2 -5 -13z"/>
<path d="M112 875 c0 -16 2 -22 5 -12 2 9 2 23 0 30 -3 6 -5 -1 -5 -18z"/>
<path d="M221 474 c0 -11 3 -14 6 -6 3 7 2 16 -1 19 -3 4 -6 -2 -5 -13z"/>
<path d="M250 479 c0 -5 5 -7 10 -4 6 3 10 8 10 11 0 2 -4 4 -10 4 -5 0 -10
-5 -10 -11z"/>
<path d="M1380 110 c0 -5 5 -10 10 -10 6 0 10 5 10 10 0 6 -4 10 -10 10 -5 0
-10 -4 -10 -10z"/>
<path d="M1360 66 c0 -20 4 -36 9 -36 5 0 7 10 3 22 -3 14 -2 19 6 14 17 -10
15 3 -3 20 -13 14 -15 11 -15 -20z"/>
</g>
</svg>
